<svg xmlns="http://www.w3.org/2000/svg" xmlns:xlink="http://www.w3.org/1999/xlink" id="body_8" preserveAspectRatio="xMinYMin meet" viewBox="0 0 2560 1440"><defs><clipPath id="1"><path id="" clip-rule="evenodd" transform="matrix(1 0 0 1 0 0)" d="M0 1080L0 0L0 0L1920 0L1920 0L1920 1080L1920 1080L0 1080z" /></clipPath><clipPath id="2"><path id="" clip-rule="evenodd" transform="matrix(1 0 0 1 0 0)" d="M0 1080L1920 1080L1920 1080L1920 0L1920 0L0 0z" /></clipPath></defs><g transform="matrix(1.333333 0 0 1.333333 0 0)"><g clip-path="url(#1)"><g clip-path="url(#2)"><path id="1" transform="matrix(1 0 0 -1 0 1080)" d="M0 1080L1920 1080L1920 0L0 0z" stroke="none" fill="#F9FCFF" fill-rule="nonzero" /><path id="15" transform="matrix(1 0 0 -1 0 1080)" d="M347.4824 868.187L488.1074 868.187L488.1074 727.562L347.4824 727.562z" stroke="none" fill="#BF282B" fill-rule="nonzero" /><path id="16" transform="matrix(1 0 0 -1 0 1080)" d="M660.8476 868.187L801.4726 868.187L801.4726 727.562L660.8476 727.562z" stroke="none" fill="#000000" fill-rule="nonzero" /><path id="17" transform="matrix(1 0 0 -1 0 1080)" d="M347.4824 582.4065L488.1074 582.4065L488.1074 441.7815L347.4824 441.7815z" stroke="none" fill="#CBCBCB" fill-rule="nonzero" /><path id="18" transform="matrix(1 0 0 -1 0 1080)" d="M660.8476 582.4065L801.4726 582.4065L801.4726 441.7815L660.8476 441.7815z" stroke="none" fill="#FFFFFF" fill-rule="nonzero" /><path id="19" transform="matrix(1 0 0 -1 0 1080)" d="M660.8476 582.4065L801.4726 582.4065L801.4726 582.4065L801.4726 441.7815L801.4726 441.7815L660.8476 441.7815z" stroke="#999999" stroke-width="0.25" fill="none" /><path id="20" transform="matrix(1 0 0 -1 0 1080)" d="M347.4824 296.6261L488.1074 296.6261L488.1074 156.0011L347.4824 156.0011z" stroke="none" fill="#E0CBA0" fill-rule="nonzero" /><path id="21" transform="matrix(1 0 0 -1 0 1080)" d="M1418.903 868.187L1559.528 868.187L1559.528 727.562L1418.903 727.562z" stroke="none" fill="#031891" fill-rule="nonzero" /><path id="22" transform="matrix(1 0 0 -1 0 1080)" d="M1105.537 868.187L1246.162 868.187L1246.162 727.562L1105.537 727.562z" stroke="none" fill="#3F6C89" fill-rule="nonzero" /><path id="23" transform="matrix(1 0 0 -1 0 1080)" d="M1418.903 582.4065L1559.528 582.4065L1559.528 441.7815L1418.903 441.7815z" stroke="none" fill="#A3C0C8" fill-rule="nonzero" /><path id="24" transform="matrix(1 0 0 -1 0 1080)" d="M1418.903 296.6261L1559.528 296.6261L1559.528 156.0011L1418.903 156.0011z" stroke="none" fill="#EDFF65" fill-rule="nonzero" /><path id="25" transform="matrix(1 0 0 -1 0 1080)" d="M1105.537 582.4065L1246.162 582.4065L1246.162 441.7815L1105.537 441.7815z" stroke="none" fill="#730D51" fill-rule="nonzero" /><path id="26" transform="matrix(1 0 0 -1 0 1080)" d="M953.505 360.5945L953.505 872.0383" stroke="#D5D5D5" stroke-width="2" fill="none" /></g></g></g></svg>