<svg xmlns="http://www.w3.org/2000/svg" xmlns:xlink="http://www.w3.org/1999/xlink" id="body_12" preserveAspectRatio="xMinYMin meet" viewBox="0 0 2560 1440"><defs><clipPath id="1"><path id="" clip-rule="evenodd" transform="matrix(1 0 0 1 0 0)" d="M0 1080L0 0L0 0L1920 0L1920 0L1920 1080L1920 1080L0 1080z" /></clipPath><clipPath id="2"><path id="" clip-rule="evenodd" transform="matrix(1 0 0 1 0 0)" d="M0 1080L1920 1080L1920 1080L1920 0L1920 0L0 0z" /></clipPath></defs><g transform="matrix(1.333333 0 0 1.333333 0 0)"><g clip-path="url(#1)"><g clip-path="url(#2)"><path id="1" transform="matrix(1 0 0 -1 0 1080)" d="M0 1080L1920 1080L1920 0L0 0z" stroke="none" fill="#FFFFFF" fill-rule="nonzero" /><path id="168" transform="matrix(1 0 0 -1 0 1080)" d="M351.0938 621.3267L591.1398 621.3267" stroke="#000000" stroke-width="1.9" fill="none" /><path id="169" transform="matrix(1 0 0 -1 0 1080)" d="M351.0938 482.0328L1535.63 482.0328" stroke="#000000" stroke-width="1.9" fill="none" /><path id="170" transform="matrix(1 0 0 -1 0 1080)" d="M351.0938 437.0328L586.1998 437.0328" stroke="#000000" stroke-width="1.9" fill="none" /><path id="171" transform="matrix(1 0 0 -1 0 1080)" d="M351.0938 302.0328L835.3278 302.0328" stroke="#000000" stroke-width="1.9" fill="none" /></g></g></g></svg>