<svg xmlns="http://www.w3.org/2000/svg" xmlns:xlink="http://www.w3.org/1999/xlink" id="body_9" preserveAspectRatio="xMinYMin meet" viewBox="0 0 2560 1440"><defs><clipPath id="1"><path id="" clip-rule="evenodd" transform="matrix(1 0 0 1 0 0)" d="M0 1080L0 0L0 0L1920 0L1920 0L1920 1080L1920 1080L0 1080z" /></clipPath><clipPath id="2"><path id="" clip-rule="evenodd" transform="matrix(1 0 0 1 0 0)" d="M0 1080L1920 1080L1920 1080L1920 0L1920 0L0 0z" /></clipPath></defs><g transform="matrix(1.333333 0 0 1.333333 0 0)"><g clip-path="url(#1)"><g clip-path="url(#2)"><path id="1" transform="matrix(1 0 0 -1 0 1080)" d="M0 1080L1920 1080L1920 0L0 0z" stroke="none" fill="#FEF3E9" fill-rule="nonzero" /><g transform="matrix(0.7560179 0 0 0.756018 392.6112 286.0904)"><g transform="matrix(1 0 0 1 0 0)"><image x="0" y="0" xlink:href="img_12.png" width="424" height="564" /></g></g><g transform="matrix(0.7489523 0 0 0.7489524 799.7242 286.2106)"><g transform="matrix(1 0 0 1 0 0)"><image x="0" y="0" xlink:href="img_13.png" width="428" height="569" /></g></g><g transform="matrix(1 0 0 1 1206.837 299.7876)"><g transform="matrix(1 0 0 1 0 0)"><image x="0" y="0" xlink:href="img_14.png" width="370" height="399" /></g></g></g></g></g></svg>