<svg xmlns="http://www.w3.org/2000/svg" xmlns:xlink="http://www.w3.org/1999/xlink" id="body_3" preserveAspectRatio="xMinYMin meet" viewBox="0 0 2560 1440"><defs><clipPath id="1"><path id="" clip-rule="evenodd" transform="matrix(1 0 0 1 0 0)" d="M0 1080L0 0L0 0L1920 0L1920 0L1920 1080L1920 1080L0 1080z" /></clipPath><clipPath id="2"><path id="" clip-rule="evenodd" transform="matrix(1 0 0 1 0 0)" d="M0 1080L1920 1080L1920 1080L1920 0L1920 0L0 0z" /></clipPath><clipPath id="3"><path id="" clip-rule="evenodd" transform="matrix(1 0 0 1 0 0)" d="M226.4899 810.662L398.2419 810.662L398.2419 810.662L398.2419 752.59L398.2419 752.59L226.4899 752.59z" /></clipPath><clipPath id="4"><path id="" clip-rule="evenodd" transform="matrix(1 0 0 1 0 0)" d="M227.0659 892.2284L734.6209 892.2284L734.6209 892.2284L734.6209 802.3082L734.6209 802.3082L227.0659 802.3082z" /></clipPath><clipPath id="5"><path id="" clip-rule="evenodd" transform="matrix(1 0 0 1 0 0)" d="M0 1080L1920 1080L1920 1080L1920 0L1920 0L0 0z" /></clipPath><clipPath id="6"><path id="" clip-rule="evenodd" transform="matrix(1 0 0 1 0 0)" d="M1124.246 697.6013L1265.694 697.6013L1265.694 697.6013L1265.694 639.5293L1265.694 639.5293L1124.246 639.5293z" /></clipPath><clipPath id="7"><path id="" clip-rule="evenodd" transform="matrix(1 0 0 1 0 0)" d="M0 1080L1920 1080L1920 1080L1920 0L1920 0L0 0z" /></clipPath><clipPath id="8"><path id="" clip-rule="evenodd" transform="matrix(1 0 0 1 0 0)" d="M1342.315 697.6013L1596.435 697.6013L1596.435 697.6013L1596.435 639.5293L1596.435 639.5293L1342.315 639.5293z" /></clipPath><clipPath id="9"><path id="" clip-rule="evenodd" transform="matrix(1 0 0 1 0 0)" d="M0 1080L1920 1080L1920 1080L1920 0L1920 0L0 0z" /></clipPath></defs><g transform="matrix(1.333333 0 0 1.333333 0 0)"><g clip-path="url(#1)"><g clip-path="url(#2)"><path id="1" transform="matrix(1 0 0 -1 0 1080)" d="M0 1080L1920 1080L1920 0L0 0z" stroke="none" fill="#FEF3E9" fill-rule="nonzero" /></g><g clip-path="url(#3)"></g><g clip-path="url(#4)"></g><g clip-path="url(#5)"><path id="645" transform="matrix(1 0 0 -1 0 1080)" d="M804.5769 109.5439L804.5769 836.4505" stroke="#9DB9B9" stroke-width="2" fill="none" /><path id="646" transform="matrix(1 0 0 -1 0 1080)" d="M145.4548 345.2319L739.2118 345.2319" stroke="#9DB9B9" stroke-width="2" fill="none" /><path id="707" transform="matrix(1 0 0 -1 0 1080)" d="M1128.157 436.5597L1261.783 436.5597L1261.783 387.2379L1128.157 387.2379z" stroke="none" fill="#C2D3E9" fill-rule="nonzero" /></g><g clip-path="url(#6)"></g><g clip-path="url(#7)"><path id="715" transform="matrix(1 0 0 -1 0 1080)" d="M1346.226 436.5597L1592.524 436.5597L1592.524 387.2379L1346.226 387.2379z" stroke="none" fill="#C2D3E9" fill-rule="nonzero" /></g><g clip-path="url(#8)"></g><g clip-path="url(#9)"></g></g></g></svg>