<svg xmlns="http://www.w3.org/2000/svg" xmlns:xlink="http://www.w3.org/1999/xlink" id="body_1" preserveAspectRatio="xMinYMin meet" viewBox="0 0 2560 1440"><defs><clipPath id="1"><path id="" clip-rule="evenodd" transform="matrix(1 0 0 1 0 0)" d="M0 1080L0 0L0 0L1920 0L1920 0L1920 1080L1920 1080L0 1080z" /></clipPath><clipPath id="2"><path id="" clip-rule="evenodd" transform="matrix(1 0 0 1 0 0)" d="M0 1080L1920 1080L1920 1080L1920 0L1920 0L0 0z" /></clipPath><clipPath id="3"><path id="" clip-rule="evenodd" transform="matrix(1 0 0 1 0 0)" d="M353.9378 541.7812L1566.062 541.7812L1566.062 541.7812L1566.062 187.0312L1566.062 187.0312L353.9378 187.0312z" /></clipPath><clipPath id="4"><path id="" clip-rule="evenodd" transform="matrix(1 0 0 1 0 0)" d="M0 1080L1920 1080L1920 1080L1920 0L1920 0L0 0z" /></clipPath></defs><g transform="matrix(1.333333 0 0 1.333333 0 0)"><g clip-path="url(#1)"><g clip-path="url(#2)"><path id="1" transform="matrix(1 0 0 -1 0 1080)" d="M0 1080L1920 1080L1920 0L0 0z" stroke="none" fill="#D3C1C1" fill-rule="nonzero" /><g transform="matrix(0.9997347 0 0 0.9997347 398.6489 -19.35095)"><g transform="matrix(1 0 0 1 0 0)"><image x="0" y="0" xlink:href="img_01.png" width="1123" height="1123" /></g></g><path id="3" transform="matrix(1 0 0 -1 0 1080)" d="M1319.458 899.4584C 1517.982 700.9349 1517.982 379.0649 1319.458 180.5414C 1120.935 -17.98206 799.0649 -17.98206 600.5415 180.5414C 402.018 379.0649 402.018 700.9349 600.5415 899.4584C 799.0649 1097.982 1120.935 1097.982 1319.458 899.4584z" stroke="#FFFFFF" stroke-width="30" fill="none" /><g transform="matrix(1.000423 0 0 1.000423 584.341 166.3411)"><g transform="matrix(1 0 0 1 0 0)"><image x="0" y="0" xlink:href="img_02.png" width="751" height="751" /></g></g><path id="5" transform="matrix(1 0 0 -1 0 1080)" d="M1183.558 763.5582C 1307.026 640.0904 1307.026 439.9096 1183.558 316.4419C 1060.09 192.9741 859.9096 192.9741 736.4418 316.4419C 612.9741 439.9096 612.9741 640.0904 736.4418 763.5582C 859.9096 887.0259 1060.09 887.0259 1183.558 763.5582z" stroke="none" fill="#AEB9B9" fill-rule="nonzero" /><path id="6" transform="matrix(1 0 0 -1 0 1080)" d="M1188.026 768.0271C 1188.026 768.0271 1187.936 767.9376 1187.755 767.7567C 1187.665 767.6662 1187.552 767.5529 1187.415 767.4164C 1187.279 767.28 1187.119 767.1204 1186.936 766.9375C 1186.845 766.846 1186.748 766.7487 1186.645 766.6455C 1186.541 766.5424 1186.432 766.4333 1186.317 766.3183C 1186.203 766.2034 1186.082 766.0825 1185.955 765.9557C 1185.828 765.8289 1185.695 765.6962 1185.557 765.5575C 1185.418 765.4188 1185.274 765.2741 1185.123 765.1235C 1184.972 764.9728 1184.816 764.8161 1184.653 764.6535C 1184.572 764.5721 1184.489 764.4893 1184.405 764.4049C 1184.32 764.3205 1184.234 764.2347 1184.147 764.1473C 1184.06 764.0599 1183.971 763.971 1183.88 763.8805C 1183.79 763.7901 1183.698 763.6982 1183.605 763.6047C 1183.411 763.4105 1183.223 763.2228 1183.042 763.0417C 1182.951 762.9511 1182.862 762.8621 1182.775 762.7748C 1182.688 762.6874 1182.602 762.6017 1182.518 762.5175C 1182.35 762.3493 1182.188 762.1875 1182.032 762.032C 1181.877 761.8765 1181.728 761.7274 1181.585 761.5846C 1181.443 761.4418 1181.306 761.3054 1181.176 761.1751C 1181.046 761.0449 1180.922 760.9209 1180.804 760.8031C 1180.686 760.6853 1180.575 760.5737 1180.469 760.4682C 1180.364 760.3627 1180.264 760.2634 1180.171 760.1701C 1179.985 759.9835 1179.822 759.8212 1179.684 759.6827C 1179.546 759.5442 1179.431 759.4295 1179.34 759.3382C 1179.157 759.1554 1179.067 759.066 1179.067 759.066C 1179.067 759.066 1179.173 759.1714 1179.33 759.3289C 1179.409 759.4076 1179.501 759.4994 1179.599 759.5974C 1179.697 759.6955 1179.801 759.7999 1179.905 759.9039C 1180.009 760.0079 1180.113 760.1115 1180.209 760.2081C 1180.306 760.3047 1180.395 760.3943 1180.471 760.4701C 1180.623 760.6218 1180.719 760.7185 1180.708 760.7069C 1180.703 760.7025 1180.788 760.7871 1180.939 760.9384C 1181.015 761.0141 1181.107 761.1064 1181.213 761.2127C 1181.32 761.3189 1181.44 761.4391 1181.571 761.5705C 1181.702 761.7018 1181.845 761.8443 1181.996 761.9951C 1182.146 762.146 1182.306 762.3052 1182.47 762.4701C 1182.553 762.5525 1182.637 762.6363 1182.721 762.7212C 1182.806 762.8061 1182.892 762.892 1182.979 762.9787C 1183.065 763.0653 1183.153 763.1527 1183.241 763.2404C 1183.328 763.3281 1183.416 763.4162 1183.504 763.5043C 1183.68 763.6805 1183.857 763.8568 1184.03 764.0304C 1184.117 764.1172 1184.203 764.2033 1184.288 764.2884C 1184.373 764.3734 1184.457 764.4575 1184.54 764.5402C 1184.705 764.7056 1184.865 764.8655 1185.017 765.0172C 1185.168 765.1689 1185.312 765.3123 1185.444 765.4448C 1185.577 765.5772 1185.698 765.6986 1185.805 765.8062C 1185.913 765.9139 1186.007 766.0077 1186.084 766.085C 1186.239 766.2396 1186.327 766.328 1186.327 766.328C 1186.327 766.328 1186.433 766.4342 1186.592 766.5934C 1186.672 766.6731 1186.765 766.766 1186.864 766.8656C 1186.964 766.9651 1187.07 767.0713 1187.176 767.1775C 1187.282 767.2837 1187.389 767.3899 1187.488 767.4895C 1187.588 767.589 1187.681 767.6819 1187.76 767.7616C 1187.919 767.9209 1188.026 768.0271 1188.026 768.0271C 1188.026 768.0271 1188.026 768.0271 1188.026 768.0271C 1188.026 768.0271 1188.026 768.0271 1188.026 768.0271zM1179.126 759.1241C 1179.126 759.1241 1179.147 759.146 1179.228 759.2267C 1179.309 759.3074 1179.448 759.4471 1179.684 759.6828C 1179.802 759.8006 1179.944 759.9424 1180.114 760.1129C 1180.199 760.1981 1180.292 760.2905 1180.392 760.3907C 1180.492 760.4908 1180.6 760.5987 1180.716 760.7149C 1180.832 760.8311 1180.956 760.9556 1181.09 761.089C 1181.223 761.2224 1181.365 761.3647 1181.517 761.5165C 1181.669 761.6683 1181.83 761.8296 1182.001 762.0009C 1182.087 762.0866 1182.175 762.1748 1182.266 762.2655C 1182.357 762.3563 1182.45 762.4497 1182.546 762.5457C 1182.642 762.642 1182.738 762.7377 1182.833 762.8327C 1182.928 762.9277 1183.022 763.022 1183.116 763.1155C 1183.302 763.3024 1183.486 763.4863 1183.667 763.6666C 1183.757 763.7568 1183.846 763.8461 1183.934 763.9345C 1184.023 764.0228 1184.11 764.1103 1184.197 764.1967C 1184.283 764.2832 1184.368 764.3686 1184.453 764.4531C 1184.537 764.5375 1184.621 764.6209 1184.703 764.7032C 1184.867 764.8678 1185.028 765.0281 1185.183 765.1836C 1185.338 765.3391 1185.489 765.4898 1185.635 765.6353C 1185.78 765.7808 1185.92 765.9212 1186.055 766.0559C 1186.19 766.1906 1186.319 766.3198 1186.442 766.4429C 1186.565 766.566 1186.682 766.6831 1186.793 766.7937C 1186.903 766.9044 1187.007 767.0086 1187.105 767.1059C 1187.299 767.3006 1187.467 767.4678 1187.603 767.6043C 1187.876 767.8772 1188.026 768.0271 1188.026 768.0271C 1188.026 768.0271 1187.92 767.9216 1187.762 767.7634C 1187.683 767.6843 1187.591 767.592 1187.492 767.4931C 1187.393 767.3943 1187.288 767.2888 1187.182 767.1833C 1187.077 767.0779 1186.971 766.9724 1186.872 766.8735C 1186.774 766.7746 1186.681 766.6824 1186.602 766.6033C 1186.444 766.4451 1186.339 766.3396 1186.339 766.3396C 1186.339 766.3396 1186.251 766.2518 1186.097 766.0981C 1186.02 766.0212 1185.927 765.9279 1185.82 765.8209C 1185.713 765.7138 1185.592 765.593 1185.461 765.4613C 1185.329 765.3296 1185.186 765.1868 1185.035 765.0359C 1184.884 764.8849 1184.725 764.7257 1184.561 764.5611C 1184.478 764.4787 1184.395 764.395 1184.31 764.3103C 1184.225 764.2255 1184.14 764.1397 1184.053 764.0533C 1183.88 763.8804 1183.705 763.7047 1183.529 763.5291C 1183.441 763.4412 1183.353 763.3534 1183.266 763.2659C 1183.179 763.1784 1183.091 763.0913 1183.005 763.0048C 1182.919 762.9184 1182.833 762.8326 1182.748 762.7479C 1182.663 762.6631 1182.58 762.5794 1182.497 762.4971C 1182.333 762.3324 1182.174 762.1732 1182.023 762.0222C 1181.872 761.8713 1181.729 761.7286 1181.597 761.5968C 1181.466 761.4651 1181.345 761.3443 1181.238 761.2373C 1181.131 761.1302 1181.038 761.0369 1180.961 760.9601C 1180.807 760.8064 1180.719 760.7185 1180.719 760.7185C 1180.719 760.7185 1180.62 760.6189 1180.47 760.4694C 1180.396 760.3947 1180.309 760.3075 1180.215 760.2141C 1180.122 760.1206 1180.022 760.021 1179.922 759.9213C 1179.823 759.8217 1179.723 759.722 1179.63 759.6286C 1179.536 759.5352 1179.449 759.448 1179.375 759.3733C 1179.225 759.2238 1179.126 759.1241 1179.126 759.1241C 1179.126 759.1241 1179.126 759.1241 1179.126 759.1241C 1179.126 759.1241 1179.126 759.1241 1179.126 759.1241zM1095.373 830.188C 1099.937 828.0596 1106.793 823.3833 1108.573 822.4465C 1110.353 821.5097 1116.58 818.8007 1119.286 817.053C 1121.969 815.2992 1122.591 814.2394 1127.11 811.2573C 1132.746 807.527 1136.867 805.678 1137.186 805.5835C 1138.148 805.2769 1141.342 804.0964 1144.961 801.2248C 1149.796 797.3894 1151.715 796.8458 1153.712 794.9108C 1156.906 791.2775 1157.789 791.6741 1160.516 789.2846C 1163.259 786.861 1165.223 785.6683 1167.168 783.4469C 1169.279 780.9981 1171.71 780.2424 1173.866 778.2151C 1177.358 775.0749 1171.612 769.5115 1168.417 772.3818C 1166.483 774.1196 1165.296 776.2997 1163.236 778.0625C 1161.163 779.8362 1159.235 781.2301 1156.924 782.6855C 1154.603 784.1281 1150.599 787.943 1147.012 790.4238C 1143.401 792.9013 1137.264 796.7022 1133.221 799.6239C 1129.146 802.5274 1127.564 805.9115 1118.179 809.9876C 1115.162 811.3002 1109.662 814.763 1107.338 816.005C 1103.259 818.1843 1095.047 821.5944 1091.584 823.2029C 1087.452 825.1222 1090.81 832.3164 1095.373 830.188C 1095.373 830.188 1095.373 830.188 1095.373 830.188zM1004.735 848.9241C 1001.005 849.4612 1001.968 857.4102 1006.44 856.758C 1011.178 856.067 1021.183 852.8097 1023.894 852.4258C 1026.605 852.0419 1034.327 851.8543 1036.672 851.2791C 1039.001 850.7078 1049.565 845.4371 1054.525 844.5916C 1059.457 843.7717 1060.698 842.9615 1063.959 841.841C 1067.204 840.726 1072.173 838.4002 1075.152 837.053C 1078.153 835.715 1081.676 836.5755 1085.423 834.3723C 1089.164 832.154 1091.615 831.9266 1094.316 830.6789C 1098.662 828.6711 1094.985 821.6319 1091.035 823.4574C 1087.221 825.22 1084.39 825.8823 1081.18 827.4129C 1077.985 828.9371 1075.452 830.858 1072.012 831.2797C 1068.578 831.7168 1062.786 834.7524 1059.119 836.5129C 1055.451 838.2734 1051.106 839.374 1047.968 839.9311C 1041.675 841.102 1027.226 846.0962 1024.963 845.8851C 1022.687 845.6935 1016.009 847.6352 1013.565 848.0579C 1011.154 848.475 1009.762 848.2002 1004.735 848.9241C 1004.735 848.9241 1004.735 848.9241 1004.735 848.9241zM914.7068 856.9231C 919.6031 857.6191 927.7218 857.4341 929.6762 857.6196C 931.6305 857.8051 938.1497 858.9362 941.2784 858.9539C 944.3919 858.9542 945.4656 858.4063 950.7013 858.3937C 957.2381 858.3694 961.5213 859.1011 961.8275 859.1981C 962.762 859.4725 965.9527 860.2482 970.3615 859.8593C 976.2506 859.3404 978.0585 859.9585 980.6624 859.4613C 985.1103 858.219 985.6005 859.0416 989.0093 858.5843C 992.4487 858.1077 994.6208 858.2206 997.3103 857.4756C 1000.249 856.6352 1002.554 857.379 1005.297 856.9226C 1009.665 856.3016 1008.028 848.4749 1004.033 849.041C 1001.615 849.3837 999.5503 850.5162 997.0093 850.8171C 994.4526 851.1197 992.2033 851.1937 989.6144 851.1081C 987.024 851.0061 981.8506 851.9383 977.6888 852.0079C 973.5104 852.062 966.598 851.8313 961.8025 852.0399C 956.9911 852.2156 953.936 854.1646 944.1545 852.4359C 941.0087 851.8819 934.6835 851.7762 932.1223 851.5484C 927.6284 851.1487 919.0685 849.5371 915.3549 849.0035C 910.9235 848.3668 909.8105 856.2272 914.7068 856.9231C 914.7068 856.9231 914.7068 856.9231 914.7068 856.9231zM828.5359 823.1861C 825.0578 821.5718 821.521 828.7558 825.6966 830.6846C 830.1206 832.728 840.412 835.5059 842.9211 836.6715C 845.4302 837.8371 852.0656 841.9058 854.3588 842.7042C 856.6359 843.4971 868.3984 844.8343 873.0125 846.8219C 877.5899 848.8163 879.0644 848.8098 882.3928 849.6407C 885.7048 850.4675 891.0994 851.2132 894.301 851.7C 897.5156 852.2063 899.969 854.8409 904.2533 855.0272C 908.5405 855.1972 910.6801 856.3382 913.5731 856.7599C 918.2284 857.4386 918.9983 849.5346 914.7659 848.9183C 910.6795 848.3233 907.9863 847.3411 904.5063 846.8822C 901.0424 846.4262 897.9045 846.6632 894.8202 845.1494C 891.7324 843.6518 885.2648 843.055 881.2453 842.5398C 877.2259 842.0246 872.9873 840.5851 870.0506 839.3448C 864.1313 836.9019 849.2047 833.1947 847.4023 831.7772C 845.5785 830.3692 838.8474 828.3279 836.5365 827.3358C 834.2563 826.3569 833.2237 825.3618 828.5359 823.1861C 828.5359 823.1861 828.5359 823.1861 828.5359 823.1861zM746.137 778.2177C 750.0508 781.7375 757.2601 786.3966 758.8667 787.7043C 760.4732 789.012 765.5425 793.7816 768.2596 795.6191C 770.9731 797.4333 772.2123 797.6042 776.7702 800.6154C 782.4655 804.3679 785.7704 807.4189 785.9822 807.6748C 786.6406 808.4376 788.9782 810.9082 793.0019 813.0838C 798.3762 815.9904 799.5912 817.5199 802.1072 818.5694C 806.6212 820.0339 806.5893 820.994 809.7682 822.5181C 812.984 824.0432 814.7841 825.3476 817.4964 826.2205C 820.4741 827.152 822.0374 829.0529 824.6302 830.1896C 828.7015 832.0884 831.594 824.6332 827.8728 822.8955C 825.6198 821.8434 823.2337 821.646 820.8935 820.485C 818.5388 819.3168 816.5701 818.1254 814.3953 816.6077C 812.2283 815.0755 807.2696 812.9565 803.6452 810.6696C 800.015 808.3604 794.1717 804.2506 789.9035 801.6861C 785.6395 799.0851 781.9232 798.9785 774.3582 791.8529C 771.9241 789.563 766.4636 785.7742 764.351 784.0765C 760.6442 781.0976 754.0328 774.6593 751.0666 771.9832C 747.527 768.7898 742.2231 774.698 746.137 778.2177C 746.137 778.2177 746.137 778.2177 746.137 778.2177zM745.0859 777.2683C 748.4527 780.3228 754.3053 774.9009 750.4264 771.3818C 746.5474 767.8626 739.0462 761.5956 737.1568 759.4431C 735.2668 757.2664 727.5348 748.2647 725.8985 746.4124C 724.2621 744.5602 717.6304 738.5722 714.9921 734.1671C 712.3409 729.7721 708.331 726.613 706.589 723.5988C 704.4098 719.8428 702.7393 718.2092 700.7534 715.577C 698.7675 712.9448 697.3572 707.8495 695.3321 705.8623C 693.293 703.8839 693.1259 702.1518 691.1674 698.8426C 689.2003 695.5188 682.3498 699.4791 684.2413 702.6804C 686.1417 705.8966 687.9096 708.556 690.0483 711.5771C 692.1825 714.6218 694.7884 718.3172 697.0821 721.6294C 699.1674 724.6406 701.601 729.6785 704.5976 732.7926C 707.5809 735.9166 711.6419 740.6571 713.3003 742.5426C 715.3756 744.909 719.5829 750.1652 721.8453 752.0342C 724.7268 754.4242 728.5242 759.6908 729.6872 761.8693C 730.8626 764.0607 732.6679 764.6053 736.26 768.3566C 738.392 770.5847 741.7058 774.2018 745.0859 777.2683C 745.0859 777.2683 745.0859 777.2683 745.0859 777.2683zM649.2099 616.9379C 650.3983 621.758 653.6193 629.2671 654.1826 631.1629C 654.7459 633.0586 656.1545 639.5814 657.3209 642.5193C 658.4976 645.4365 659.4101 646.2358 661.4102 651.1466C 663.9152 657.2745 664.8762 661.5829 664.9034 661.9076C 665.0063 662.8903 665.5066 666.1849 667.5614 670.1956C 670.3055 675.5531 670.4346 677.4958 671.9034 679.769C 674.7765 683.5042 674.206 684.2785 675.9582 687.3329C 677.7402 690.409 678.486 692.5099 680.232 694.7793C 682.1639 697.2484 682.3829 699.7168 683.8903 702.1497C 686.1927 706.0641 692.7986 701.5569 690.6956 697.9776C 689.4223 695.8104 687.5597 694.279 686.2836 691.9834C 684.9996 689.6737 684.051 687.5707 683.1207 685.0879C 682.2049 682.5975 679.3308 678.0561 677.6585 674.153C 675.9942 670.2283 673.552 663.6254 671.5265 659.1919C 669.5252 654.731 666.5493 652.5847 664.4503 642.7681C 663.7734 639.6117 661.4851 633.6526 660.7321 631.1732C 659.411 626.8229 657.6934 618.2354 656.7976 614.5783C 655.7287 610.2143 648.0215 612.1179 649.2099 616.9379C 649.2099 616.9379 649.2099 616.9379 649.2099 616.9379zM648.2279 525.0659C 648.4068 521.3084 640.4194 520.7484 640.2129 525.2552C 639.9941 530.0301 641.2956 540.4397 641.1579 543.1636C 641.0202 545.8876 639.7363 553.4694 639.8544 555.8679C 639.9718 558.2497 643.1289 569.5513 643.0076 574.5427C 642.8664 579.5026 643.4223 580.8623 643.8934 584.2465C 644.3622 587.614 645.6834 592.8831 646.4269 596.0312C 647.1572 599.1986 645.6291 602.4574 647.0576 606.5066C 648.5022 610.5524 648.2446 612.9702 648.9367 615.8212C 650.0504 620.4091 657.6692 618.1686 656.6561 613.9981C 655.6779 609.9714 655.5821 607.101 654.7073 603.698C 653.8359 600.3111 652.4445 597.4894 652.6975 594.0672C 652.9343 590.6479 651.0747 584.4431 650.0527 580.5407C 649.0308 576.6382 648.7838 572.1967 648.8374 569.0324C 648.8924 562.6758 646.7396 547.6184 647.3767 545.4448C 647.9972 543.2551 647.3575 536.3542 647.4056 533.8813C 647.4531 531.4412 647.9868 530.1303 648.2279 525.0659C 648.2279 525.0659 648.2279 525.0659 648.2279 525.0659zM640.2688 524.0825C 640.0582 528.3374 647.9646 529.3768 648.2071 524.4753C 648.4497 519.5739 648.4582 510.4835 648.8933 507.8574C 649.3465 505.2167 651.2443 494.2769 651.6005 491.9776C 651.9566 489.6782 652.2305 481.226 653.8702 476.6123C 655.4937 471.9954 655.2927 467.0908 656.4501 463.9476C 657.887 460.0246 658.0422 457.7689 658.75 454.6559C 659.4579 451.5428 662.4059 447.3164 662.5994 444.5523C 662.7772 441.7832 663.982 440.5744 665.2229 437.0143C 666.4692 433.4385 659.0237 430.759 657.8213 434.201C 656.6134 437.659 655.7433 440.6559 654.8399 444.1462C 653.9157 447.6477 652.8045 451.8926 651.7803 455.6483C 650.8493 459.0626 648.6059 463.9648 648.1833 468.0844C 647.7446 472.2003 646.7704 478.0639 646.4087 480.4197C 645.951 483.372 644.6658 489.6015 644.6997 492.3655C 644.7357 495.8914 643.1568 501.7626 642.2378 503.8867C 641.3169 506.0274 642.0638 507.643 641.4862 512.4373C 641.1423 515.2838 640.4801 519.8109 640.2688 524.0825C 640.2688 524.0825 640.2688 524.0825 640.2688 524.0825zM701.2783 351.3946C 698.2303 355.5649 694.4052 363.0858 693.2851 364.787C 692.165 366.4883 687.9897 371.918 686.4602 374.7633C 684.9534 377.603 684.9171 378.8384 682.4153 383.6081C 679.2994 389.5671 676.6179 393.1105 676.3863 393.3432C 675.6986 394.0635 673.4932 396.5984 671.7522 400.7699C 669.4261 406.3419 668.0315 407.6852 667.2483 410.2663C 666.2587 414.8577 665.3013 414.9171 664.1121 418.1988C 662.9256 421.5171 661.8125 423.4179 661.2201 426.1791C 660.5964 429.2079 658.8651 430.9323 657.9964 433.6019C 656.5191 437.8046 664.2208 439.9554 665.5733 436.1136C 666.3921 433.7876 666.3474 431.4118 667.2639 428.9906C 668.1861 426.5543 669.1698 424.4978 670.4556 422.2075C 671.7566 419.9234 673.3536 414.8296 675.2501 411.0391C 677.1683 407.2407 680.64 401.0933 682.7365 396.647C 684.8696 392.2016 684.5891 388.5277 690.8402 380.4187C 692.8489 377.8098 696.0134 372.0853 697.4652 369.8503C 700.0124 365.9286 705.6563 358.8365 707.9737 355.6762C 710.739 351.9051 704.3263 347.2242 701.2783 351.3946C 701.2783 351.3946 701.2783 351.3946 701.2783 351.3946zM702.1008 350.2742C 699.4534 353.8638 705.4482 359.1262 708.4973 354.992C 711.5465 350.8578 716.8921 342.9231 718.8089 340.8653C 720.7493 338.8046 728.8698 330.2572 730.5544 328.4329C 732.2389 326.6086 737.6129 319.31 741.8054 316.1636C 745.9863 313.0053 748.7958 308.63 751.668 306.5478C 755.2462 303.9448 756.7347 302.0908 759.198 299.8119C 761.6612 297.533 766.6551 295.563 768.4638 293.3207C 770.2625 291.0654 771.9889 290.7097 775.1318 288.3943C 778.2886 286.0687 773.6612 279.65 770.6209 281.8863C 767.5665 284.1331 765.0585 286.1896 762.2206 288.6591C 759.3586 291.1265 755.8849 294.1405 752.7661 296.8039C 749.9309 299.2251 745.0876 302.2239 742.2307 305.578C 739.3626 308.92 734.9618 313.5348 733.2198 315.4104C 731.033 317.7584 726.1816 322.5291 724.5466 324.9751C 722.4548 328.0912 717.6312 332.3687 715.6025 333.7222C 713.5623 335.0893 713.2245 336.9167 709.9229 340.7871C 707.9619 343.0845 704.7587 346.6706 702.1008 350.2742C 702.1008 350.2742 702.1008 350.2742 702.1008 350.2742zM853.2934 238.105C 848.5841 239.7659 841.3744 243.7233 839.5297 244.4743C 837.6851 245.2253 831.2857 247.2847 828.4531 248.7441C 825.6422 250.2117 824.9289 251.2011 820.1963 253.6956C 814.2915 256.8174 810.0601 258.2212 809.737 258.2817C 808.7608 258.4857 805.5032 259.3244 801.6734 261.7909C 796.5574 265.0851 794.6183 265.4191 792.475 267.1238C 788.9971 270.3834 788.1649 269.8964 785.2625 271.9696C 782.341 274.0749 780.3004 275.0439 778.1847 277.0308C 775.8858 279.2248 773.4253 279.709 771.1214 281.4782C 767.403 284.2018 772.5564 290.3176 775.9571 287.8292C 778.0161 286.3225 779.3799 284.2967 781.5666 282.776C 783.7668 281.246 785.7904 280.0744 788.1968 278.8817C 790.6123 277.7027 794.9016 274.3536 798.6618 272.2758C 802.4443 270.2037 808.8392 267.0808 813.0938 264.6041C 817.3781 262.1488 819.2486 258.9591 828.8862 255.8722C 831.9849 254.8776 837.7358 251.9974 840.1468 250.9986C 844.3772 249.2462 852.8086 246.6807 856.3817 245.4267C 860.6455 243.9303 858.0027 236.4442 853.2934 238.105C 853.2934 238.105 853.2934 238.105 853.2934 238.105zM854.5608 237.6611C 850.4926 239.0766 852.4876 246.7979 857.1727 245.1677C 861.8578 243.5376 870.3615 240.121 872.9768 239.5374C 875.6125 238.9651 886.5185 236.6237 888.7908 236.0936C 891.063 235.5635 899.0182 232.6583 903.9062 232.457C 908.7913 232.2395 913.2523 230.2232 916.5874 230.1241C 920.7471 229.9932 922.8851 229.2954 926.0174 228.7898C 929.1497 228.2843 934.1351 229.44 936.747 228.5861C 939.3577 227.7159 940.9159 228.3814 944.6411 228.199C 948.3826 228.0159 948.0732 220.1088 944.4718 220.2827C 940.8537 220.4574 937.7795 220.7712 934.2353 221.2376C 930.6731 221.6889 926.3519 222.2432 922.5074 222.6949C 919.0124 223.1055 913.6495 222.8534 909.6808 223.9985C 905.7095 225.1274 899.9103 226.4127 897.5891 226.9571C 894.6785 227.6353 888.4084 228.7723 885.8488 229.8384C 882.5809 231.1915 876.5166 231.9289 874.1902 231.8743C 871.8475 231.8242 870.6205 233.1227 865.921 234.393C 863.1304 235.1462 858.6449 236.24 854.5608 237.6611C 854.5608 237.6611 854.5608 237.6611 854.5608 237.6611zM1035.345 228.8216C 1030.521 227.6581 1022.398 227.0659 1020.465 226.6946C 1018.532 226.3234 1012.135 224.5761 1009.016 224.261C 1005.911 223.9646 1004.787 224.4079 999.567 223.9238C 993.0484 223.328 988.851 222.1944 988.5551 222.0688C 987.6501 221.7071 984.5446 220.6329 980.1176 220.603C 974.2042 220.5626 972.4638 219.7764 969.8254 220.0251C 965.2813 220.8413 964.8715 219.976 961.4374 220.1088C 957.971 220.2579 955.8217 219.9399 953.0771 220.427C 950.0763 220.9853 947.855 220.0264 945.0859 220.2207C 940.6859 220.4247 941.5731 228.3713 945.5969 228.1866C 948.0332 228.0748 950.1922 227.1429 952.7471 227.0841C 955.3178 227.0248 957.5617 227.1641 960.1287 227.4942C 962.6958 227.8409 967.9312 227.4021 972.0802 227.7263C 976.2444 228.0675 983.1057 228.9509 987.9028 229.1973C 992.7127 229.4778 995.9399 227.8261 1005.53 230.4764C 1008.615 231.3268 1014.915 232.0341 1017.449 232.5052C 1021.895 233.3318 1030.289 235.7557 1033.947 236.6438C 1038.313 237.7036 1040.17 229.985 1035.345 228.8216C 1035.345 228.8216 1035.345 228.8216 1035.345 228.8216zM1118.442 270.9882C 1121.782 272.9585 1126.009 266.1576 1121.999 263.8017C 1117.75 261.3057 1107.686 257.4829 1105.279 256.0661C 1102.873 254.6492 1096.605 249.9245 1094.382 248.8986C 1092.175 247.8799 1080.516 245.3743 1076.085 242.9386C 1071.691 240.5 1070.214 240.3618 1066.962 239.2079C 1063.726 238.0597 1058.4 236.7904 1055.245 235.9943C 1052.078 235.1775 1049.875 232.3161 1045.611 231.7166C 1041.342 231.133 1039.312 229.7911 1036.463 229.0931C 1031.876 227.9698 1030.359 235.7648 1034.528 236.7852C 1038.553 237.7705 1041.151 239.0081 1044.585 239.8015C 1048.004 240.5904 1051.164 240.6589 1054.104 242.4662C 1057.05 244.2579 1063.463 245.484 1067.437 246.3921C 1071.411 247.3001 1075.518 249.1525 1078.342 250.6793C 1084.038 253.6997 1098.649 258.8942 1100.322 260.4897C 1102.018 262.0779 1108.578 264.7989 1110.803 266.0251C 1112.999 267.2351 1113.941 268.3325 1118.442 270.9882C 1118.442 270.9882 1118.442 270.9882 1118.442 270.9882zM1123.042 264.4169C 1119.261 262.1769 1114.637 268.6751 1118.99 271.2546C 1123.343 273.8342 1131.644 278.2698 1133.845 279.9423C 1136.05 281.638 1145.197 288.7276 1147.144 290.1897C 1149.091 291.6519 1156.737 296.1347 1160.229 299.9328C 1163.73 303.7182 1168.353 306.0549 1170.722 308.7062C 1173.681 312.0083 1175.697 313.3201 1178.252 315.5767C 1180.808 317.8333 1183.357 322.6858 1185.811 324.3003C 1188.277 325.9034 1188.828 327.6085 1191.501 330.5576C 1194.185 333.5197 1200.103 328.267 1197.522 325.4149C 1194.929 322.5495 1192.585 320.2155 1189.787 317.5865C 1186.988 314.9331 1183.564 311.7103 1180.563 308.8447C 1177.836 306.2396 1174.345 301.7121 1170.739 299.2277C 1167.143 296.7309 1162.191 292.8926 1160.19 291.383C 1157.685 289.4873 1152.554 285.2266 1150 283.8806C 1146.745 282.1569 1142.096 277.8571 1140.579 275.9984C 1139.047 274.1299 1137.218 273.9948 1133.105 271.1448C 1130.663 269.4518 1126.837 266.6658 1123.042 264.4169C 1123.042 264.4169 1123.042 264.4169 1123.042 264.4169zM1250.05 404.3313C 1247.917 399.7697 1243.233 392.9168 1242.294 391.138C 1241.355 389.3592 1238.64 383.1341 1236.889 380.4297C 1235.132 377.7479 1234.072 377.1263 1231.084 372.6105C 1227.348 366.9771 1225.494 362.8576 1225.399 362.5386C 1225.091 361.5771 1223.907 358.3834 1221.031 354.7666C 1217.19 349.9351 1216.645 348.0161 1214.707 346.0211C 1211.07 342.8302 1211.466 341.9472 1209.073 339.2218C 1206.646 336.4804 1205.451 334.5178 1203.227 332.5744C 1200.776 330.4658 1200.017 328.0349 1197.987 325.8807C 1194.842 322.3915 1189.285 328.1436 1192.159 331.3359C 1193.9 333.2688 1196.081 334.4533 1197.847 336.5122C 1199.623 338.5838 1201.019 340.5105 1202.477 342.8201C 1203.923 345.14 1207.743 349.1409 1210.228 352.7267C 1212.709 356.3355 1216.517 362.4695 1219.444 366.5103C 1222.352 370.583 1225.738 372.1615 1229.824 381.5433C 1231.14 384.5595 1234.609 390.0564 1235.854 392.38C 1238.038 396.4569 1241.457 404.6662 1243.069 408.1276C 1244.993 412.2579 1252.183 408.893 1250.05 404.3313C 1250.05 404.3313 1250.05 404.3313 1250.05 404.3313zM1250.621 405.5592C 1248.798 401.6171 1241.308 404.3559 1243.407 408.8955C 1245.507 413.4351 1249.764 421.6255 1250.607 424.1882C 1251.441 426.7724 1254.855 437.4626 1255.607 439.6848C 1256.36 441.9069 1260.035 449.5838 1260.713 454.4497C 1261.407 459.3112 1263.848 463.5741 1264.27 466.8954C 1264.804 471.0371 1265.706 473.1046 1266.512 476.1828C 1267.317 479.2609 1266.648 484.3461 1267.749 486.8698C 1268.866 489.3909 1268.354 491.0089 1268.893 494.7058C 1269.434 498.419 1277.275 497.3543 1276.757 493.7798C 1276.236 490.1887 1275.628 487.1523 1274.822 483.6608C 1274.03 480.1499 1273.061 475.8903 1272.239 472.0953C 1271.492 468.6452 1271.223 463.265 1269.697 459.4096C 1268.186 455.5499 1266.339 449.8765 1265.57 447.6079C 1264.609 444.7629 1262.86 438.6007 1261.545 436.142C 1259.875 433.0021 1258.538 427.0031 1258.36 424.6688C 1258.176 422.3185 1256.761 421.2149 1255.024 416.6292C 1253.993 413.9061 1252.451 409.5169 1250.621 405.5592C 1250.621 405.5592 1250.621 405.5592 1250.621 405.5592zM1276.968 584.9761C 1277.659 580.0793 1277.466 571.9609 1277.65 570.0064C 1277.833 568.0519 1278.958 561.5317 1278.972 558.4031C 1278.969 555.2896 1278.421 554.2164 1278.403 548.9808C 1278.372 542.4441 1279.099 538.1601 1279.196 537.8538C 1279.47 536.919 1280.242 533.7276 1279.849 529.3192C 1279.324 523.4305 1279.94 521.622 1279.441 519.0186C 1278.194 514.5718 1279.016 514.0808 1278.555 510.6724C 1278.075 507.2334 1278.186 505.0612 1277.438 502.3723C 1276.595 499.4348 1277.337 497.1286 1276.877 494.3861C 1276.252 490.0183 1268.427 491.6634 1268.997 495.6576C 1269.342 498.076 1270.477 500.1392 1270.78 502.6799C 1271.085 505.2364 1271.162 507.4857 1271.079 510.0746C 1270.979 512.6652 1271.916 517.8378 1271.99 521.9996C 1272.048 526.178 1271.825 533.0907 1272.038 537.8859C 1272.218 542.6971 1274.17 545.7503 1272.451 555.5334C 1271.901 558.6797 1271.801 565.005 1271.576 567.5663C 1271.181 572.0606 1269.578 580.6219 1269.048 584.3359C 1268.415 588.7678 1276.277 589.873 1276.968 584.9761C 1276.968 584.9761 1276.968 584.9761 1276.968 584.9761zM1276.779 586.2929C 1277.393 582.0697 1269.621 580.285 1268.914 585.1496C 1268.207 590.0143 1267.332 599.0836 1266.648 601.6635C 1265.944 604.2563 1263.006 615.0005 1262.43 617.2638C 1261.854 619.5272 1260.765 627.9477 1258.684 632.4053C 1256.619 636.8678 1256.34 641.7933 1254.879 644.8287C 1253.064 648.618 1252.687 650.8612 1251.674 653.9109C 1250.662 656.9606 1247.306 660.9139 1246.837 663.6647C 1246.384 666.422 1245.063 667.5189 1243.469 670.9696C 1241.869 674.4354 1249.018 677.8266 1250.562 674.4904C 1252.113 671.1386 1253.279 668.2179 1254.527 664.8071C 1255.796 661.3869 1257.323 657.2411 1258.714 653.5783C 1259.978 650.2484 1262.693 645.5551 1263.516 641.474C 1264.355 637.3981 1265.894 631.6272 1266.483 629.3064C 1267.225 626.3985 1269.105 620.295 1269.338 617.5305C 1269.641 614.0047 1271.776 608.2913 1272.894 606.2579C 1274.016 604.2079 1273.427 602.524 1274.459 597.7945C 1275.073 594.9866 1276.163 590.5327 1276.779 586.2929C 1276.779 586.2929 1276.779 586.2929 1276.779 586.2929zM1191.99 748.8279C 1189.303 751.8076 1195.122 757.3094 1198.336 753.7316C 1201.741 749.941 1207.702 740.5825 1209.619 738.4409C 1211.537 736.2994 1217.538 730.921 1219.021 728.8927C 1220.494 726.8786 1225.413 715.7065 1228.731 711.7462C 1232.044 707.8238 1232.483 706.3784 1234.286 703.3555C 1236.081 700.3475 1238.416 695.2826 1239.839 692.2921C 1241.284 689.2943 1244.543 687.6455 1245.989 683.5181C 1247.42 679.3834 1249.144 677.622 1250.397 674.9231C 1252.415 670.5801 1245.058 667.5888 1243.225 671.5363C 1241.455 675.3477 1239.719 677.6948 1238.249 680.9598C 1236.786 684.21 1236.08 687.3414 1233.706 689.9258C 1231.346 692.5181 1228.83 698.6748 1227.118 702.465C 1225.406 706.2552 1222.729 710.0025 1220.636 712.5322C 1216.472 717.6472 1208.246 731.275 1206.311 732.6493C 1204.378 734.0474 1200.272 740.1029 1198.575 742.1019C 1196.9 744.0745 1195.611 744.8118 1191.99 748.8279C 1191.99 748.8279 1191.99 748.8279 1191.99 748.8279zM1186.006 770.0292C 1190.098 766.0076 1190.214 762.9777 1187.322 759.8886C 1184.314 756.6832 1180.634 757.5425 1177.124 760.9924C 1173.626 764.4305 1175.466 766.0676 1169.332 771.5344C 1166.034 774.4547 1171.899 779.9318 1174.628 777.4607C 1181.246 771.4694 1181.914 774.0508 1186.006 770.0292C 1186.006 770.0292 1186.006 770.0292 1186.006 770.0292zM1180.682 757.557C 1178.547 759.7214 1175.939 763.0096 1178.633 766.4596C 1181.351 769.909 1186.108 769.9775 1189.447 766.5972C 1192.798 763.2044 1190.263 762.6128 1197.601 754.4977C 1200.315 751.4964 1194.499 746.0748 1191.819 749.0412C 1185.45 756.0927 1184.641 753.5425 1180.682 757.557C 1180.682 757.557 1180.682 757.557 1180.682 757.557z" stroke="none" fill="#000000" fill-rule="nonzero" /><g transform="matrix(0.2399843 0 0 0.239604 637.341 862.6589)"><g transform="matrix(1 0 0 1 0 0)"><image x="0" y="0" xlink:href="img_03.png" width="2689" height="505" /></g></g><path id="8" transform="matrix(1 0 0 -1 0 1080)" d="M1084.693 664.693C 1153.559 595.8269 1153.559 484.173 1084.693 415.307C 1015.827 346.441 904.1731 346.441 835.307 415.307C 766.441 484.173 766.441 595.8269 835.307 664.693C 904.1731 733.559 1015.827 733.559 1084.693 664.693z" stroke="#D5D5D5" stroke-width="30" fill="none" /></g><g clip-path="url(#3)"></g><g clip-path="url(#4)"></g></g></g></svg>