<svg xmlns="http://www.w3.org/2000/svg" xmlns:xlink="http://www.w3.org/1999/xlink" id="body_2" preserveAspectRatio="xMinYMin meet" viewBox="0 0 2560 1440"><defs><clipPath id="1"><path id="" clip-rule="evenodd" transform="matrix(1 0 0 1 0 0)" d="M0 1080L0 0L0 0L1920 0L1920 0L1920 1080L1920 1080L0 1080z" /></clipPath><clipPath id="2"><path id="" clip-rule="evenodd" transform="matrix(1 0 0 1 0 0)" d="M0 1080L1920 1080L1920 1080L1920 0L1920 0L0 0z" /></clipPath><clipPath id="3"><path id="" clip-rule="evenodd" transform="matrix(1 0 0 1 0 0)" d="M0 1080L1920 1080L1920 1080L1920 0L1920 0L0 0z" /></clipPath><clipPath id="4"><path id="" clip-rule="evenodd" transform="matrix(1 0 0 1 0 0)" d="M1102 837L1878 837L1878 837L1878 30L1878 30L1102 30z" /></clipPath><clipPath id="5"><path id="" clip-rule="evenodd" transform="matrix(1 0 0 1 0 0)" d="M1403.575 814.3025C 1502.421 836.8923 1609.974 820.9486 1701.681 761.2936C 1793.389 701.6391 1851.511 609.8148 1870.927 510.2968L1870.927 510.2968L1403.575 814.3025zM1688.53 472.1974C 1672.116 482.8746 1658.276 497.5889 1650.978 513.7678C 1636.38 546.1254 1653.336 572.1927 1688.834 571.9644C 1724.331 571.7362 1764.962 545.3062 1779.559 512.9486C 1794.157 480.591 1777.201 454.5237 1741.703 454.752C 1723.955 454.8661 1704.944 461.5201 1688.53 472.1974zM1208.299 702.9169C 1238.234 734.5935 1272.725 760.3575 1310.07 779.8637L1310.07 779.8637L1621.333 577.3915C 1620.783 576.6427 1620.22 575.9035 1619.71 575.1196C 1597.491 540.9624 1621.797 485.7326 1674.011 451.768C 1726.226 417.8035 1786.567 417.9715 1808.786 452.1287C 1809.297 452.9143 1809.795 453.6923 1810.256 454.4998L1810.256 454.4998L1877.347 410.8579C 1874.653 368.8124 1865.083 326.8376 1848.258 286.6323L1848.258 286.6323L1208.299 702.9169zM1190.598 511.4643C 1184.981 515.1181 1180.062 519.8152 1176.586 525.0632L1176.586 525.0632L1168.972 536.5984C 1162.022 547.0934 1149.263 555.3934 1136.85 557.4936L1136.85 557.4936L1123.218 559.7783C 1122.891 559.8338 1122.585 559.9067 1122.257 559.9693C 1132.468 590.1979 1146.592 619.6195 1164.793 647.5996C 1166.587 650.3581 1168.431 653.1191 1170.284 655.8182C 1172.325 653.7542 1174.136 651.5234 1175.673 649.2024L1175.673 649.2024L1183.269 637.751C 1190.219 627.256 1203.029 618.923 1215.443 616.8227L1215.443 616.8227L1229.041 614.4872C 1241.452 612.3879 1254.212 604.0882 1261.163 593.592L1261.163 593.592L1268.811 582.1076C 1275.761 571.6126 1288.52 563.3126 1300.933 561.2123L1300.933 561.2123L1314.532 558.8768C 1326.944 556.7765 1339.703 548.4777 1346.654 537.9815L1346.654 537.9815L1354.301 526.4972C 1361.253 516.0011 1374.011 507.702 1386.424 505.6019L1386.424 505.6019L1400.022 503.2664C 1412.435 501.166 1425.193 492.8672 1432.145 482.3711L1432.145 482.3711L1439.792 470.8868C 1446.744 460.3907 1459.552 452.0584 1471.965 449.9585L1471.965 449.9585L1485.513 447.656C 1497.924 445.5567 1510.735 437.2239 1517.686 426.7277L1517.686 426.7277L1525.282 415.2764C 1532.233 404.7814 1545.043 396.4482 1557.456 394.3481L1557.456 394.3481L1571.003 392.0456C 1583.415 389.9463 1596.225 381.6135 1603.177 371.1173L1603.177 371.1173L1610.824 359.6329C 1617.774 349.1379 1630.533 340.8378 1642.946 338.7377L1642.946 338.7377L1656.545 336.4021C 1668.956 334.3028 1681.716 326.0031 1688.667 315.5069L1688.667 315.5069L1696.315 304.0225C 1703.265 293.5274 1716.024 285.2272 1728.437 283.1273L1728.437 283.1273L1742.035 280.7917C 1754.447 278.6924 1767.207 270.3926 1774.158 259.8965L1774.158 259.8965L1781.805 248.4121C 1788.755 237.917 1801.566 229.5838 1813.979 227.4838L1813.979 227.4838L1816.978 226.9795C 1816.436 226.1327 1815.925 225.2492 1815.376 224.4051C 1798.953 199.1619 1780.086 176.4836 1759.298 156.4334C 1752.451 162.3783 1743.809 166.7541 1735.335 168.1877L1735.335 168.1877L1721.754 170.4394C 1709.343 172.5387 1696.532 180.8716 1689.581 191.3677L1689.581 191.3677L1682.017 202.8698C 1675.067 213.3648 1662.257 221.698 1649.844 223.7981L1649.844 223.7981L1636.263 226.0498C 1623.852 228.149 1611.042 236.4819 1604.09 246.9781L1604.09 246.9781L1596.527 258.4802C 1589.577 268.9752 1576.766 277.3084 1564.353 279.4085L1564.353 279.4085L1550.722 281.6932C 1538.311 283.7925 1525.551 292.0923 1518.6 302.5885L1518.6 302.5885L1510.985 314.1237C 1504.035 324.6187 1491.276 332.9188 1478.863 335.0189L1478.863 335.0189L1465.231 337.3037C 1452.82 339.4029 1440.06 347.7027 1433.109 358.1989L1433.109 358.1989L1425.495 369.7341C 1418.545 380.2291 1405.785 388.5292 1393.372 390.6293L1393.372 390.6293L1379.741 392.9141C 1367.329 395.0133 1354.519 403.3462 1347.567 413.8423L1347.567 413.8423L1340.004 425.3445C 1333.052 435.8406 1320.244 444.1727 1307.831 446.2728L1307.831 446.2728L1294.25 448.5245C 1281.839 450.6237 1269.028 458.9565 1262.077 469.4528L1262.077 469.4528L1254.513 480.9549C 1247.563 491.4499 1234.753 499.783 1222.34 501.8832L1222.34 501.8832L1208.76 504.1349C 1202.553 505.185 1196.215 507.8105 1190.598 511.4643zM1104.304 478.7718C 1105.605 490.5961 1107.467 502.3975 1109.875 514.1354L1109.875 514.1354L1715.629 120.1016C 1705.873 113.1427 1695.791 106.6891 1685.508 100.707L1685.508 100.707L1104.304 478.7718zM1278.487 110.711C 1165.53 184.1882 1103.47 306.5362 1102.008 431.8745L1102.008 431.8745L1643.567 79.59802C 1528.393 30.12805 1391.444 37.23401 1278.487 110.711z" /></clipPath><clipPath id="6"><path id="" clip-rule="evenodd" transform="matrix(1 0 0 1 0 0)" d="M1403.575 814.3025C 1502.421 836.8923 1609.974 820.9486 1701.681 761.2936C 1793.389 701.6391 1851.511 609.8148 1870.927 510.2968L1870.927 510.2968L1403.575 814.3025zM1688.53 472.1974C 1672.116 482.8746 1658.276 497.5889 1650.978 513.7678C 1636.38 546.1254 1653.336 572.1927 1688.834 571.9644C 1724.331 571.7362 1764.962 545.3062 1779.559 512.9486C 1794.157 480.591 1777.201 454.5237 1741.703 454.752C 1723.955 454.8661 1704.944 461.5201 1688.53 472.1974zM1208.299 702.9169C 1238.234 734.5935 1272.725 760.3575 1310.07 779.8637L1310.07 779.8637L1621.333 577.3915C 1620.783 576.6427 1620.22 575.9035 1619.71 575.1196C 1597.491 540.9624 1621.797 485.7326 1674.011 451.768C 1726.226 417.8035 1786.567 417.9715 1808.786 452.1287C 1809.297 452.9143 1809.795 453.6923 1810.256 454.4998L1810.256 454.4998L1877.347 410.8579C 1874.653 368.8124 1865.083 326.8376 1848.258 286.6323L1848.258 286.6323L1208.299 702.9169zM1190.598 511.4643C 1184.981 515.1181 1180.062 519.8152 1176.586 525.0632L1176.586 525.0632L1168.972 536.5984C 1162.022 547.0934 1149.263 555.3934 1136.85 557.4936L1136.85 557.4936L1123.218 559.7783C 1122.891 559.8338 1122.585 559.9067 1122.257 559.9693C 1132.468 590.1979 1146.592 619.6195 1164.793 647.5996C 1166.587 650.3581 1168.431 653.1191 1170.284 655.8182C 1172.325 653.7542 1174.136 651.5234 1175.673 649.2024L1175.673 649.2024L1183.269 637.751C 1190.219 627.256 1203.029 618.923 1215.443 616.8227L1215.443 616.8227L1229.041 614.4872C 1241.452 612.3879 1254.212 604.0882 1261.163 593.592L1261.163 593.592L1268.811 582.1076C 1275.761 571.6126 1288.52 563.3126 1300.933 561.2123L1300.933 561.2123L1314.532 558.8768C 1326.944 556.7765 1339.703 548.4777 1346.654 537.9815L1346.654 537.9815L1354.301 526.4972C 1361.253 516.0011 1374.011 507.702 1386.424 505.6019L1386.424 505.6019L1400.022 503.2664C 1412.435 501.166 1425.193 492.8672 1432.145 482.3711L1432.145 482.3711L1439.792 470.8868C 1446.744 460.3907 1459.552 452.0584 1471.965 449.9585L1471.965 449.9585L1485.513 447.656C 1497.924 445.5567 1510.735 437.2239 1517.686 426.7277L1517.686 426.7277L1525.282 415.2764C 1532.233 404.7814 1545.043 396.4482 1557.456 394.3481L1557.456 394.3481L1571.003 392.0456C 1583.415 389.9463 1596.225 381.6135 1603.177 371.1173L1603.177 371.1173L1610.824 359.6329C 1617.774 349.1379 1630.533 340.8378 1642.946 338.7377L1642.946 338.7377L1656.545 336.4021C 1668.956 334.3028 1681.716 326.0031 1688.667 315.5069L1688.667 315.5069L1696.315 304.0225C 1703.265 293.5274 1716.024 285.2272 1728.437 283.1273L1728.437 283.1273L1742.035 280.7917C 1754.447 278.6924 1767.207 270.3926 1774.158 259.8965L1774.158 259.8965L1781.805 248.4121C 1788.755 237.917 1801.566 229.5838 1813.979 227.4838L1813.979 227.4838L1816.978 226.9795C 1816.436 226.1327 1815.925 225.2492 1815.376 224.4051C 1798.953 199.1619 1780.086 176.4836 1759.298 156.4334C 1752.451 162.3783 1743.809 166.7541 1735.335 168.1877L1735.335 168.1877L1721.754 170.4394C 1709.343 172.5387 1696.532 180.8716 1689.581 191.3677L1689.581 191.3677L1682.017 202.8698C 1675.067 213.3648 1662.257 221.698 1649.844 223.7981L1649.844 223.7981L1636.263 226.0498C 1623.852 228.149 1611.042 236.4819 1604.09 246.9781L1604.09 246.9781L1596.527 258.4802C 1589.577 268.9752 1576.766 277.3084 1564.353 279.4085L1564.353 279.4085L1550.722 281.6932C 1538.311 283.7925 1525.551 292.0923 1518.6 302.5885L1518.6 302.5885L1510.985 314.1237C 1504.035 324.6187 1491.276 332.9188 1478.863 335.0189L1478.863 335.0189L1465.231 337.3037C 1452.82 339.4029 1440.06 347.7027 1433.109 358.1989L1433.109 358.1989L1425.495 369.7341C 1418.545 380.2291 1405.785 388.5292 1393.372 390.6293L1393.372 390.6293L1379.741 392.9141C 1367.329 395.0133 1354.519 403.3462 1347.567 413.8423L1347.567 413.8423L1340.004 425.3445C 1333.052 435.8406 1320.244 444.1727 1307.831 446.2728L1307.831 446.2728L1294.25 448.5245C 1281.839 450.6237 1269.028 458.9565 1262.077 469.4528L1262.077 469.4528L1254.513 480.9549C 1247.563 491.4499 1234.753 499.783 1222.34 501.8832L1222.34 501.8832L1208.76 504.1349C 1202.553 505.185 1196.215 507.8105 1190.598 511.4643zM1104.304 478.7718C 1105.605 490.5961 1107.467 502.3975 1109.875 514.1354L1109.875 514.1354L1715.629 120.1016C 1705.873 113.1427 1695.791 106.6891 1685.508 100.707L1685.508 100.707L1104.304 478.7718zM1278.487 110.711C 1165.53 184.1882 1103.47 306.5362 1102.008 431.8745L1102.008 431.8745L1643.567 79.59802C 1528.393 30.12805 1391.444 37.23401 1278.487 110.711z" /></clipPath><clipPath id="7"><path id="" clip-rule="evenodd" transform="matrix(1 0 0 1 0 0)" d="M952 974L1920 974L1920 974L1920 0L1920 0L952 0z" /></clipPath><linearGradient gradientUnits="userSpaceOnUse" transform="matrix(1 0 0 1 0 0)" id="9884" x1="1695.329" y1="1144.875" x2="1284.839" y2="143.1199"><stop stop-color="#CCDCD9" offset="0%" /><stop stop-color="#CCDBD8" offset="1%" /><stop stop-color="#CBDAD7" offset="2%" /><stop stop-color="#C9D9D5" offset="3%" /><stop stop-color="#C8D7D4" offset="4%" /><stop stop-color="#C6D6D3" offset="5%" /><stop stop-color="#C5D4D2" offset="6%" /><stop stop-color="#C4D3D0" offset="7%" /><stop stop-color="#C2D1CF" offset="8%" /><stop stop-color="#C1D0CE" offset="9%" /><stop stop-color="#C0CECD" offset="10%" /><stop stop-color="#BECDCB" offset="11%" /><stop stop-color="#BDCCCA" offset="12%" /><stop stop-color="#BCCAC9" offset="13%" /><stop stop-color="#BAC9C8" offset="14%" /><stop stop-color="#B9C7C6" offset="15%" /><stop stop-color="#B7C6C5" offset="16%" /><stop stop-color="#B6C4C4" offset="17%" /><stop stop-color="#B5C3C2" offset="18%" /><stop stop-color="#B3C1C1" offset="19%" /><stop stop-color="#B2C0C0" offset="20%" /><stop stop-color="#B1BFBF" offset="21%" /><stop stop-color="#AFBDBD" offset="22%" /><stop stop-color="#AEBCBC" offset="23%" /><stop stop-color="#ADBABB" offset="24%" /><stop stop-color="#ABB9BA" offset="25%" /><stop stop-color="#AAB7B8" offset="26%" /><stop stop-color="#A8B6B7" offset="27%" /><stop stop-color="#A7B4B6" offset="28%" /><stop stop-color="#A6B3B5" offset="29%" /><stop stop-color="#A4B2B3" offset="30%" /><stop stop-color="#A3B0B2" offset="31%" /><stop stop-color="#A2AFB1" offset="32%" /><stop stop-color="#A0ADB0" offset="33%" /><stop stop-color="#9FACAE" offset="34%" /><stop stop-color="#9EAAAD" offset="35%" /><stop stop-color="#9CA9AC" offset="36%" /><stop stop-color="#9BA7AB" offset="37%" /><stop stop-color="#99A6A9" offset="38%" /><stop stop-color="#98A5A8" offset="39%" /><stop stop-color="#97A3A7" offset="40%" /><stop stop-color="#95A2A6" offset="41%" /><stop stop-color="#94A0A4" offset="42%" /><stop stop-color="#939FA3" offset="43%" /><stop stop-color="#919DA2" offset="44%" /><stop stop-color="#909CA1" offset="45%" /><stop stop-color="#8F9B9F" offset="46%" /><stop stop-color="#8D999E" offset="47%" /><stop stop-color="#8D999E" offset="48%" /><stop stop-color="#8E9A9E" offset="49%" /><stop stop-color="#909CA0" offset="50%" /><stop stop-color="#919DA1" offset="51%" /><stop stop-color="#929EA3" offset="52%" /><stop stop-color="#93A0A4" offset="53%" /><stop stop-color="#95A1A5" offset="54%" /><stop stop-color="#97A3A6" offset="55%" /><stop stop-color="#98A4A8" offset="56%" /><stop stop-color="#99A5A9" offset="57%" /><stop stop-color="#9BA7AA" offset="58%" /><stop stop-color="#9CA8AB" offset="59%" /><stop stop-color="#9EAAAC" offset="60%" /><stop stop-color="#9FABAE" offset="61%" /><stop stop-color="#A0ACAF" offset="62%" /><stop stop-color="#A2AEB0" offset="63%" /><stop stop-color="#A3AFB1" offset="64%" /><stop stop-color="#A5B1B3" offset="65%" /><stop stop-color="#A6B2B4" offset="66%" /><stop stop-color="#A7B3B5" offset="67%" /><stop stop-color="#A9B5B6" offset="68%" /><stop stop-color="#AAB6B8" offset="69%" /><stop stop-color="#ACB8B9" offset="70%" /><stop stop-color="#ADB9BA" offset="71%" /><stop stop-color="#AEBABB" offset="72%" /><stop stop-color="#B0BCBD" offset="73%" /><stop stop-color="#B1BDBE" offset="74%" /><stop stop-color="#B3BFBF" offset="75%" /><stop stop-color="#B4C0C0" offset="76%" /><stop stop-color="#B5C1C1" offset="77%" /><stop stop-color="#B7C3C3" offset="78%" /><stop stop-color="#B8C4C4" offset="79%" /><stop stop-color="#BAC6C5" offset="80%" /><stop stop-color="#BBC7C6" offset="81%" /><stop stop-color="#BCC8C8" offset="82%" /><stop stop-color="#BECAC9" offset="83%" /><stop stop-color="#BFCBCA" offset="84%" /><stop stop-color="#C1CDCB" offset="85%" /><stop stop-color="#C2CECD" offset="86%" /><stop stop-color="#C4D0CE" offset="87%" /><stop stop-color="#C5D1CF" offset="88%" /><stop stop-color="#C6D2D0" offset="89%" /><stop stop-color="#C8D4D2" offset="90%" /><stop stop-color="#C9D5D3" offset="91%" /><stop stop-color="#CBD7D4" offset="92%" /><stop stop-color="#CCD8D5" offset="93%" /><stop stop-color="#CDD9D6" offset="94%" /><stop stop-color="#CDD9D7" offset="95%" /><stop stop-color="#CDD9D7" offset="96%" /><stop stop-color="#CDD9D7" offset="97%" /><stop stop-color="#CEDAD7" offset="98%" /><stop stop-color="#CDD9D7" offset="99%" /><stop stop-color="#CDD9D7" offset="100%" /></linearGradient><clipPath id="8"><path id="" clip-rule="evenodd" transform="matrix(1 0 0 1 0 0)" d="M327.0138 179.2078L1592.987 179.2078L1592.987 179.2078L1592.987 64.45782L1592.987 64.45782L327.0138 64.45782z" /></clipPath><clipPath id="9"><path id="" clip-rule="evenodd" transform="matrix(1 0 0 1 0 0)" d="M0 1080L1920 1080L1920 1080L1920 0L1920 0L0 0z" /></clipPath></defs><g transform="matrix(1.333333 0 0 1.333333 0 0)"><g clip-path="url(#1)"><g clip-path="url(#2)"><path id="1" transform="matrix(1 0 0 -1 0 1080)" d="M0 1080L1920 1080L1920 0L0 0z" stroke="none" fill="#FFF4EA" fill-rule="nonzero" /></g><g clip-path="url(#3)"><g><g clip-path="url(#4)"><g clip-path="url(#5)"><g clip-path="url(#6)"><g clip-path="url(#7)"><g><path id="2" transform="matrix(1 0 0 -1 0 1080)" d="M0 1840L1920 1053L1920 1053L1920 -117L1920 -117L0 670" stroke="none" fill="url(#9884)" /><path id="4" transform="matrix(1 0 0 -1 0 1080)" d="M0 670.6095L1920 -116.1505L1920 -116.1505L1920 0L1920 0L0 0" stroke="none" fill="#CEDAD7" fill-rule="evenodd" fill-opacity="0.5568628" /></g></g></g></g></g></g></g><g clip-path="url(#8)"></g><g clip-path="url(#9)"><path id="408" transform="matrix(1 0 0 -1 0 1080)" d="M1732.021 158.1051L1691.543 158.1051L1751.069 68.10515L1810.595 158.1051L1770.117 158.1051L1770.117 243.9743L1732.021 243.9743z" stroke="none" fill="#002337" fill-rule="nonzero" fill-opacity="0.6156863" /></g></g></g></svg>