<svg xmlns="http://www.w3.org/2000/svg" xmlns:xlink="http://www.w3.org/1999/xlink" id="body_4" preserveAspectRatio="xMinYMin meet" viewBox="0 0 2560 1440"><defs><clipPath id="1"><path id="" clip-rule="evenodd" transform="matrix(1 0 0 1 0 0)" d="M0 1080L0 0L0 0L1920 0L1920 0L1920 1080L1920 1080L0 1080z" /></clipPath><clipPath id="2"><path id="" clip-rule="evenodd" transform="matrix(1 0 0 1 0 0)" d="M0 1080L1920 1080L1920 1080L1920 0L1920 0L0 0z" /></clipPath><clipPath id="3"><path id="" clip-rule="evenodd" transform="matrix(1 0 0 1 0 0)" d="M305.6364 277.5202L1588.073 277.5202L1588.073 277.5202L1588.073 148.7702L1588.073 148.7702L305.6364 148.7702z" /></clipPath><clipPath id="4"><path id="" clip-rule="evenodd" transform="matrix(1 0 0 1 0 0)" d="M0 1080L1920 1080L1920 1080L1920 0L1920 0L0 0z" /></clipPath></defs><g transform="matrix(1.333333 0 0 1.333333 0 0)"><g clip-path="url(#1)"><g clip-path="url(#2)"><path id="1" transform="matrix(1 0 0 -1 0 1080)" d="M0 1080L1920 1080L1920 0L0 0z" stroke="none" fill="#FEF3E9" fill-rule="nonzero" /></g><g clip-path="url(#3)"></g><g clip-path="url(#4)"><path id="271" transform="matrix(1 0 0 -1 0 1080)" d="M203.3556 -59.7917L162.3685 -59.7917L222.6436 -136.9439L282.9188 -59.7917L241.9317 -59.7917L241.9317 463.1314L203.3556 463.1314z" stroke="none" fill="#A7C5C8" fill-rule="nonzero" /><path id="272" transform="matrix(1 0 0 -1 0 1080)" d="M704.6067 472.7578L1241.221 472.7578L1241.221 472.7578L1244.221 472.7578" stroke="#A6C7C9" stroke-width="6" fill="none" /><path id="273" transform="matrix(1 0 0 -1 0 1080)" d="M1241.221 460.7578L1265.221 472.7578L1241.221 484.7578z" stroke="none" fill="#A6C7C9" fill-rule="nonzero" /><path id="350" transform="matrix(1 0 0 -1 0 1080)" d="M203.3556 615.5414L162.3685 615.5414L222.6436 538.3892L282.9188 615.5414L241.9317 615.5414L241.9317 1147.027L203.3556 1147.027z" stroke="none" fill="#A7C5C8" fill-rule="nonzero" /></g></g></g></svg>